<svg xmlns="http://www.w3.org/2000/svg" xmlns:xlink="http://www.w3.org/1999/xlink" width="500" zoomAndPan="magnify" viewBox="0 0 375 374.999991" height="500" preserveAspectRatio="xMidYMid meet" version="1.0"><defs><clipPath id="b4c9868a28"><path d="M 37.5 17.398438 L 337.5 17.398438 L 337.5 357.898438 L 37.5 357.898438 Z M 37.5 17.398438 " clip-rule="nonzero"/></clipPath><clipPath id="be0630db5f"><path d="M 197.5 167.496094 C 197.5 166.511719 197.453125 165.53125 197.355469 164.554688 C 197.257812 163.578125 197.113281 162.605469 196.921875 161.640625 C 196.730469 160.679688 196.492188 159.726562 196.207031 158.785156 C 195.921875 157.847656 195.59375 156.921875 195.214844 156.015625 C 194.839844 155.105469 194.421875 154.21875 193.957031 153.351562 C 193.496094 152.484375 192.988281 151.644531 192.445312 150.828125 C 191.898438 150.011719 191.3125 149.222656 190.691406 148.460938 C 190.066406 147.703125 189.40625 146.976562 188.714844 146.28125 C 188.019531 145.585938 187.292969 144.925781 186.53125 144.304688 C 185.773438 143.679688 184.984375 143.097656 184.167969 142.550781 C 183.351562 142.003906 182.507812 141.5 181.640625 141.035156 C 180.773438 140.574219 179.886719 140.152344 178.980469 139.777344 C 178.074219 139.402344 177.148438 139.070312 176.207031 138.785156 C 175.269531 138.5 174.316406 138.261719 173.351562 138.070312 C 172.390625 137.878906 171.417969 137.734375 170.441406 137.640625 C 169.460938 137.542969 168.484375 137.496094 167.5 137.496094 C 166.515625 137.496094 165.539062 137.542969 164.558594 137.640625 C 163.582031 137.734375 162.609375 137.878906 161.648438 138.070312 C 160.683594 138.261719 159.730469 138.5 158.792969 138.785156 C 157.851562 139.070312 156.925781 139.402344 156.019531 139.777344 C 155.113281 140.152344 154.222656 140.574219 153.359375 141.035156 C 152.492188 141.5 151.648438 142.003906 150.832031 142.550781 C 150.015625 143.097656 149.226562 143.679688 148.46875 144.304688 C 147.707031 144.925781 146.980469 145.585938 146.285156 146.28125 C 145.59375 146.976562 144.933594 147.703125 144.308594 148.460938 C 143.6875 149.222656 143.101562 150.011719 142.554688 150.828125 C 142.011719 151.644531 141.503906 152.484375 141.042969 153.351562 C 140.578125 154.21875 140.160156 155.105469 139.785156 156.015625 C 139.40625 156.921875 139.078125 157.847656 138.792969 158.785156 C 138.507812 159.726562 138.269531 160.679688 138.078125 161.640625 C 137.882812 162.605469 137.742188 163.578125 137.644531 164.554688 C 137.546875 165.53125 137.5 166.511719 137.5 167.496094 C 137.5 168.476562 137.546875 169.457031 137.644531 170.433594 C 137.742188 171.414062 137.882812 172.382812 138.078125 173.347656 C 138.269531 174.3125 138.507812 175.261719 138.792969 176.203125 C 139.078125 177.144531 139.40625 178.066406 139.785156 178.976562 C 140.160156 179.882812 140.578125 180.769531 141.042969 181.636719 C 141.503906 182.503906 142.011719 183.34375 142.554688 184.160156 C 143.101562 184.980469 143.6875 185.765625 144.308594 186.527344 C 144.933594 187.285156 145.59375 188.011719 146.285156 188.707031 C 146.980469 189.402344 147.707031 190.0625 148.46875 190.683594 C 149.226562 191.308594 150.015625 191.894531 150.832031 192.4375 C 151.648438 192.984375 152.492188 193.488281 153.359375 193.953125 C 154.222656 194.414062 155.113281 194.835938 156.019531 195.210938 C 156.925781 195.585938 157.851562 195.917969 158.792969 196.203125 C 159.730469 196.488281 160.683594 196.726562 161.648438 196.917969 C 162.609375 197.109375 163.582031 197.253906 164.558594 197.351562 C 165.539062 197.445312 166.515625 197.496094 167.5 197.496094 C 168.484375 197.496094 169.460938 197.445312 170.441406 197.351562 C 171.417969 197.253906 172.390625 197.109375 173.351562 196.917969 C 174.316406 196.726562 175.269531 196.488281 176.207031 196.203125 C 177.148438 195.917969 178.074219 195.585938 178.980469 195.210938 C 179.886719 194.835938 180.773438 194.414062 181.640625 193.953125 C 182.507812 193.488281 183.351562 192.984375 184.167969 192.4375 C 184.984375 191.894531 185.773438 191.308594 186.53125 190.683594 C 187.292969 190.0625 188.019531 189.402344 188.714844 188.707031 C 189.40625 188.011719 190.066406 187.285156 190.691406 186.527344 C 191.3125 185.765625 191.898438 184.980469 192.445312 184.160156 C 192.988281 183.34375 193.496094 182.503906 193.957031 181.636719 C 194.421875 180.769531 194.839844 179.882812 195.214844 178.976562 C 195.59375 178.066406 195.921875 177.144531 196.207031 176.203125 C 196.492188 175.261719 196.730469 174.3125 196.921875 173.347656 C 197.113281 172.382812 197.257812 171.414062 197.355469 170.433594 C 197.453125 169.457031 197.5 168.476562 197.5 167.496094 Z M 167.5 177.496094 C 166.84375 177.496094 166.191406 177.429688 165.550781 177.300781 C 164.90625 177.175781 164.28125 176.984375 163.671875 176.734375 C 163.066406 176.480469 162.488281 176.175781 161.945312 175.808594 C 161.398438 175.445312 160.894531 175.03125 160.429688 174.566406 C 159.964844 174.101562 159.550781 173.597656 159.183594 173.050781 C 158.820312 172.503906 158.511719 171.929688 158.261719 171.320312 C 158.011719 170.714844 157.820312 170.089844 157.691406 169.445312 C 157.5625 168.800781 157.5 168.152344 157.5 167.496094 C 157.5 166.839844 157.5625 166.1875 157.691406 165.542969 C 157.820312 164.898438 158.011719 164.273438 158.261719 163.667969 C 158.511719 163.0625 158.820312 162.484375 159.183594 161.9375 C 159.550781 161.394531 159.964844 160.886719 160.429688 160.421875 C 160.894531 159.960938 161.398438 159.542969 161.945312 159.179688 C 162.488281 158.816406 163.066406 158.507812 163.671875 158.253906 C 164.28125 158.003906 164.90625 157.816406 165.550781 157.6875 C 166.191406 157.558594 166.84375 157.496094 167.5 157.496094 C 168.15625 157.496094 168.808594 157.558594 169.449219 157.6875 C 170.09375 157.816406 170.71875 158.003906 171.328125 158.253906 C 171.933594 158.507812 172.507812 158.816406 173.054688 159.179688 C 173.601562 159.542969 174.105469 159.960938 174.570312 160.421875 C 175.035156 160.886719 175.449219 161.394531 175.816406 161.9375 C 176.179688 162.484375 176.488281 163.0625 176.738281 163.667969 C 176.988281 164.273438 177.179688 164.898438 177.308594 165.542969 C 177.4375 166.1875 177.5 166.839844 177.5 167.496094 C 177.5 168.152344 177.4375 168.800781 177.308594 169.445312 C 177.179688 170.089844 176.988281 170.714844 176.738281 171.320312 C 176.488281 171.929688 176.179688 172.503906 175.816406 173.050781 C 175.449219 173.597656 175.035156 174.101562 174.570312 174.566406 C 174.105469 175.03125 173.601562 175.445312 173.054688 175.808594 C 172.507812 176.175781 171.933594 176.480469 171.328125 176.734375 C 170.71875 176.984375 170.09375 177.175781 169.449219 177.300781 C 168.808594 177.429688 168.15625 177.496094 167.5 177.496094 Z M 267.5 197.496094 C 266.515625 197.496094 265.539062 197.542969 264.558594 197.640625 C 263.582031 197.734375 262.609375 197.878906 261.648438 198.070312 C 260.683594 198.261719 259.730469 198.5 258.792969 198.785156 C 257.851562 199.070312 256.925781 199.402344 256.019531 199.777344 C 255.113281 200.152344 254.222656 200.574219 253.359375 201.035156 C 252.492188 201.5 251.648438 202.003906 250.832031 202.550781 C 250.015625 203.097656 249.226562 203.679688 248.46875 204.304688 C 247.707031 204.925781 246.980469 205.585938 246.285156 206.28125 C 245.59375 206.976562 244.933594 207.703125 244.308594 208.460938 C 243.6875 209.222656 243.101562 210.011719 242.554688 210.828125 C 242.011719 211.644531 241.503906 212.484375 241.042969 213.351562 C 240.578125 214.21875 240.160156 215.105469 239.785156 216.015625 C 239.40625 216.921875 239.078125 217.847656 238.792969 218.785156 C 238.507812 219.726562 238.269531 220.679688 238.078125 221.640625 C 237.882812 222.605469 237.742188 223.578125 237.644531 224.554688 C 237.546875 225.53125 237.5 226.511719 237.5 227.496094 C 237.5 228.476562 237.546875 229.457031 237.644531 230.433594 C 237.742188 231.414062 237.882812 232.382812 238.078125 233.347656 C 238.269531 234.3125 238.507812 235.261719 238.792969 236.203125 C 239.078125 237.144531 239.40625 238.066406 239.785156 238.976562 C 240.160156 239.882812 240.578125 240.769531 241.042969 241.636719 C 241.503906 242.503906 242.011719 243.34375 242.554688 244.160156 C 243.101562 244.980469 243.6875 245.765625 244.308594 246.527344 C 244.933594 247.285156 245.59375 248.011719 246.285156 248.707031 C 246.980469 249.402344 247.707031 250.0625 248.46875 250.683594 C 249.226562 251.308594 250.015625 251.894531 250.832031 252.4375 C 251.648438 252.984375 252.492188 253.488281 253.359375 253.953125 C 254.222656 254.414062 255.113281 254.835938 256.019531 255.210938 C 256.925781 255.585938 257.851562 255.917969 258.792969 256.203125 C 259.730469 256.488281 260.683594 256.726562 261.648438 256.917969 C 262.609375 257.109375 263.582031 257.253906 264.558594 257.351562 C 265.539062 257.445312 266.515625 257.496094 267.5 257.496094 C 268.484375 257.496094 269.460938 257.445312 270.441406 257.351562 C 271.417969 257.253906 272.390625 257.109375 273.351562 256.917969 C 274.316406 256.726562 275.269531 256.488281 276.207031 256.203125 C 277.148438 255.917969 278.074219 255.585938 278.980469 255.210938 C 279.886719 254.835938 280.773438 254.414062 281.640625 253.953125 C 282.507812 253.488281 283.351562 252.984375 284.167969 252.4375 C 284.984375 251.894531 285.773438 251.308594 286.53125 250.683594 C 287.292969 250.0625 288.019531 249.402344 288.714844 248.707031 C 289.40625 248.011719 290.066406 247.285156 290.691406 246.527344 C 291.3125 245.765625 291.898438 244.980469 292.445312 244.160156 C 292.988281 243.34375 293.496094 242.503906 293.957031 241.636719 C 294.421875 240.769531 294.839844 239.882812 295.214844 238.976562 C 295.59375 238.066406 295.921875 237.144531 296.207031 236.203125 C 296.492188 235.261719 296.730469 234.3125 296.921875 233.347656 C 297.113281 232.382812 297.257812 231.414062 297.355469 230.433594 C 297.453125 229.457031 297.5 228.476562 297.5 227.496094 C 297.5 226.511719 297.453125 225.53125 297.355469 224.554688 C 297.257812 223.578125 297.113281 222.605469 296.921875 221.640625 C 296.730469 220.679688 296.492188 219.726562 296.207031 218.785156 C 295.921875 217.847656 295.59375 216.921875 295.214844 216.015625 C 294.839844 215.105469 294.421875 214.21875 293.957031 213.351562 C 293.496094 212.484375 292.988281 211.644531 292.445312 210.828125 C 291.898438 210.011719 291.3125 209.222656 290.691406 208.460938 C 290.066406 207.703125 289.40625 206.976562 288.714844 206.28125 C 288.019531 205.585938 287.292969 204.925781 286.53125 204.304688 C 285.773438 203.679688 284.984375 203.097656 284.167969 202.550781 C 283.351562 202.003906 282.507812 201.5 281.640625 201.035156 C 280.773438 200.574219 279.886719 200.152344 278.980469 199.777344 C 278.074219 199.402344 277.148438 199.070312 276.207031 198.785156 C 275.269531 198.5 274.316406 198.261719 273.351562 198.070312 C 272.390625 197.878906 271.417969 197.734375 270.441406 197.640625 C 269.460938 197.542969 268.484375 197.496094 267.5 197.496094 Z M 267.5 237.496094 C 266.84375 237.496094 266.191406 237.429688 265.550781 237.300781 C 264.90625 237.175781 264.28125 236.984375 263.671875 236.734375 C 263.066406 236.480469 262.488281 236.175781 261.945312 235.808594 C 261.398438 235.445312 260.894531 235.03125 260.429688 234.566406 C 259.964844 234.101562 259.550781 233.597656 259.183594 233.050781 C 258.820312 232.503906 258.511719 231.929688 258.261719 231.320312 C 258.011719 230.714844 257.820312 230.089844 257.691406 229.445312 C 257.5625 228.800781 257.5 228.152344 257.5 227.496094 C 257.5 226.839844 257.5625 226.1875 257.691406 225.542969 C 257.820312 224.898438 258.011719 224.273438 258.261719 223.667969 C 258.511719 223.0625 258.820312 222.484375 259.183594 221.9375 C 259.550781 221.394531 259.964844 220.886719 260.429688 220.421875 C 260.894531 219.960938 261.398438 219.542969 261.945312 219.179688 C 262.488281 218.816406 263.066406 218.507812 263.671875 218.253906 C 264.28125 218.003906 264.90625 217.816406 265.550781 217.6875 C 266.191406 217.558594 266.84375 217.496094 267.5 217.496094 C 268.15625 217.496094 268.808594 217.558594 269.449219 217.6875 C 270.09375 217.816406 270.71875 218.003906 271.328125 218.253906 C 271.933594 218.507812 272.507812 218.816406 273.054688 219.179688 C 273.601562 219.542969 274.105469 219.960938 274.570312 220.421875 C 275.035156 220.886719 275.449219 221.394531 275.816406 221.9375 C 276.179688 222.484375 276.488281 223.0625 276.738281 223.667969 C 276.988281 224.273438 277.179688 224.898438 277.308594 225.542969 C 277.4375 226.1875 277.5 226.839844 277.5 227.496094 C 277.5 228.152344 277.4375 228.800781 277.308594 229.445312 C 277.179688 230.089844 276.988281 230.714844 276.738281 231.320312 C 276.488281 231.929688 276.179688 232.503906 275.816406 233.050781 C 275.449219 233.597656 275.035156 234.101562 274.570312 234.566406 C 274.105469 235.03125 273.601562 235.445312 273.054688 235.808594 C 272.507812 236.175781 271.933594 236.480469 271.328125 236.734375 C 270.71875 236.984375 270.09375 237.175781 269.449219 237.300781 C 268.808594 237.429688 268.15625 237.496094 267.5 237.496094 Z M 247.5 177.496094 L 227.5 177.496094 L 227.5 157.496094 L 247.5 157.496094 Z M 287.5 177.496094 L 267.5 177.496094 L 267.5 157.496094 L 287.5 157.496094 Z M 187.5 217.496094 L 207.5 217.496094 L 207.5 237.496094 L 187.5 237.496094 Z M 147.5 217.496094 L 167.5 217.496094 L 167.5 237.496094 L 147.5 237.496094 Z M 127.5 237.496094 L 107.5 237.496094 L 107.5 217.496094 L 127.5 217.496094 Z M 127.5 257.496094 C 126.515625 257.496094 125.539062 257.542969 124.558594 257.640625 C 123.582031 257.734375 122.609375 257.878906 121.648438 258.070312 C 120.683594 258.261719 119.730469 258.5 118.792969 258.785156 C 117.851562 259.070312 116.925781 259.402344 116.019531 259.777344 C 115.113281 260.152344 114.222656 260.574219 113.359375 261.035156 C 112.492188 261.5 111.648438 262.003906 110.832031 262.550781 C 110.015625 263.097656 109.226562 263.679688 108.46875 264.304688 C 107.707031 264.925781 106.980469 265.585938 106.285156 266.28125 C 105.59375 266.976562 104.933594 267.703125 104.308594 268.460938 C 103.6875 269.222656 103.101562 270.011719 102.554688 270.828125 C 102.011719 271.644531 101.503906 272.484375 101.042969 273.351562 C 100.578125 274.21875 100.160156 275.105469 99.785156 276.015625 C 99.40625 276.921875 99.078125 277.847656 98.792969 278.785156 C 98.507812 279.726562 98.269531 280.679688 98.078125 281.640625 C 97.882812 282.605469 97.742188 283.578125 97.644531 284.554688 C 97.546875 285.53125 97.5 286.511719 97.5 287.496094 C 97.5 288.476562 97.546875 289.457031 97.644531 290.433594 C 97.742188 291.414062 97.882812 292.382812 98.078125 293.347656 C 98.269531 294.3125 98.507812 295.261719 98.792969 296.203125 C 99.078125 297.144531 99.40625 298.066406 99.785156 298.976562 C 100.160156 299.882812 100.578125 300.769531 101.042969 301.636719 C 101.503906 302.503906 102.011719 303.34375 102.554688 304.160156 C 103.101562 304.980469 103.6875 305.765625 104.308594 306.527344 C 104.933594 307.285156 105.59375 308.011719 106.285156 308.707031 C 106.980469 309.402344 107.707031 310.0625 108.46875 310.683594 C 109.226562 311.308594 110.015625 311.894531 110.832031 312.4375 C 111.648438 312.984375 112.492188 313.488281 113.359375 313.953125 C 114.222656 314.414062 115.113281 314.835938 116.019531 315.210938 C 116.925781 315.585938 117.851562 315.917969 118.792969 316.203125 C 119.730469 316.488281 120.683594 316.726562 121.648438 316.917969 C 122.609375 317.109375 123.582031 317.253906 124.558594 317.351562 C 125.539062 317.445312 126.515625 317.496094 127.5 317.496094 C 128.484375 317.496094 129.460938 317.445312 130.441406 317.351562 C 131.417969 317.253906 132.390625 317.109375 133.351562 316.917969 C 134.316406 316.726562 135.269531 316.488281 136.207031 316.203125 C 137.148438 315.917969 138.074219 315.585938 138.980469 315.210938 C 139.886719 314.835938 140.773438 314.414062 141.640625 313.953125 C 142.507812 313.488281 143.351562 312.984375 144.167969 312.4375 C 144.984375 311.894531 145.773438 311.308594 146.53125 310.683594 C 147.292969 310.0625 148.019531 309.402344 148.714844 308.707031 C 149.40625 308.011719 150.066406 307.285156 150.691406 306.527344 C 151.3125 305.765625 151.898438 304.980469 152.445312 304.160156 C 152.988281 303.34375 153.496094 302.503906 153.957031 301.636719 C 154.421875 300.769531 154.839844 299.882812 155.214844 298.976562 C 155.59375 298.066406 155.921875 297.144531 156.207031 296.203125 C 156.492188 295.261719 156.730469 294.3125 156.921875 293.347656 C 157.113281 292.382812 157.257812 291.414062 157.355469 290.433594 C 157.453125 289.457031 157.5 288.476562 157.5 287.496094 C 157.5 286.511719 157.453125 285.53125 157.355469 284.554688 C 157.257812 283.578125 157.113281 282.605469 156.921875 281.640625 C 156.730469 280.679688 156.492188 279.726562 156.207031 278.785156 C 155.921875 277.847656 155.59375 276.921875 155.214844 276.015625 C 154.839844 275.105469 154.421875 274.21875 153.957031 273.351562 C 153.496094 272.484375 152.988281 271.644531 152.445312 270.828125 C 151.898438 270.011719 151.3125 269.222656 150.691406 268.460938 C 150.066406 267.703125 149.40625 266.976562 148.714844 266.28125 C 148.019531 265.585938 147.292969 264.925781 146.53125 264.304688 C 145.773438 263.679688 144.984375 263.097656 144.167969 262.550781 C 143.351562 262.003906 142.507812 261.5 141.640625 261.035156 C 140.773438 260.574219 139.886719 260.152344 138.980469 259.777344 C 138.074219 259.402344 137.148438 259.070312 136.207031 258.785156 C 135.269531 258.5 134.316406 258.261719 133.351562 258.070312 C 132.390625 257.878906 131.417969 257.734375 130.441406 257.640625 C 129.460938 257.542969 128.484375 257.496094 127.5 257.496094 Z M 127.5 297.496094 C 126.84375 297.496094 126.191406 297.429688 125.550781 297.300781 C 124.90625 297.175781 124.28125 296.984375 123.671875 296.734375 C 123.066406 296.480469 122.488281 296.175781 121.945312 295.808594 C 121.398438 295.445312 120.894531 295.03125 120.429688 294.566406 C 119.964844 294.101562 119.550781 293.597656 119.183594 293.050781 C 118.820312 292.503906 118.511719 291.929688 118.261719 291.320312 C 118.011719 290.714844 117.820312 290.089844 117.691406 289.445312 C 117.5625 288.800781 117.5 288.152344 117.5 287.496094 C 117.5 286.839844 117.5625 286.1875 117.691406 285.542969 C 117.820312 284.898438 118.011719 284.273438 118.261719 283.667969 C 118.511719 283.0625 118.820312 282.484375 119.183594 281.9375 C 119.550781 281.394531 119.964844 280.886719 120.429688 280.421875 C 120.894531 279.960938 121.398438 279.542969 121.945312 279.179688 C 122.488281 278.816406 123.066406 278.507812 123.671875 278.253906 C 124.28125 278.003906 124.90625 277.816406 125.550781 277.6875 C 126.191406 277.558594 126.84375 277.496094 127.5 277.496094 C 128.15625 277.496094 128.808594 277.558594 129.449219 277.6875 C 130.09375 277.816406 130.71875 278.003906 131.328125 278.253906 C 131.933594 278.507812 132.507812 278.816406 133.054688 279.179688 C 133.601562 279.542969 134.105469 279.960938 134.570312 280.421875 C 135.035156 280.886719 135.449219 281.394531 135.816406 281.9375 C 136.179688 282.484375 136.488281 283.0625 136.738281 283.667969 C 136.988281 284.273438 137.179688 284.898438 137.308594 285.542969 C 137.4375 286.1875 137.5 286.839844 137.5 287.496094 C 137.5 288.152344 137.4375 288.800781 137.308594 289.445312 C 137.179688 290.089844 136.988281 290.714844 136.738281 291.320312 C 136.488281 291.929688 136.179688 292.503906 135.816406 293.050781 C 135.449219 293.597656 135.035156 294.101562 134.570312 294.566406 C 134.105469 295.03125 133.601562 295.445312 133.054688 295.808594 C 132.507812 296.175781 131.933594 296.480469 131.328125 296.734375 C 130.71875 296.984375 130.09375 297.175781 129.449219 297.300781 C 128.808594 297.429688 128.15625 297.496094 127.5 297.496094 Z M 187.5 277.496094 L 207.5 277.496094 L 207.5 297.496094 L 187.5 297.496094 Z M 227.5 277.496094 L 247.5 277.496094 L 247.5 297.496094 L 227.5 297.496094 Z M 267.5 277.496094 L 287.5 277.496094 L 287.5 297.496094 L 267.5 297.496094 Z M 107.5 17.496094 C 106.84375 17.496094 106.191406 17.558594 105.550781 17.6875 C 104.90625 17.816406 104.28125 18.003906 103.671875 18.253906 C 103.066406 18.507812 102.492188 18.816406 101.945312 19.179688 C 101.398438 19.542969 100.894531 19.960938 100.429688 20.421875 C 99.964844 20.886719 99.550781 21.394531 99.183594 21.9375 C 98.820312 22.484375 98.511719 23.0625 98.261719 23.667969 C 98.011719 24.273438 97.820312 24.898438 97.691406 25.542969 C 97.5625 26.1875 97.5 26.839844 97.5 27.496094 L 97.5 37.496094 L 47.5 37.496094 C 46.84375 37.496094 46.191406 37.558594 45.550781 37.6875 C 44.90625 37.816406 44.28125 38.003906 43.671875 38.253906 C 43.066406 38.507812 42.492188 38.816406 41.945312 39.179688 C 41.398438 39.542969 40.894531 39.960938 40.429688 40.421875 C 39.964844 40.886719 39.550781 41.394531 39.183594 41.9375 C 38.820312 42.484375 38.511719 43.0625 38.261719 43.667969 C 38.011719 44.273438 37.820312 44.898438 37.691406 45.542969 C 37.5625 46.1875 37.5 46.839844 37.5 47.496094 L 37.5 347.496094 C 37.5 348.152344 37.5625 348.800781 37.691406 349.445312 C 37.820312 350.089844 38.011719 350.714844 38.261719 351.320312 C 38.511719 351.929688 38.820312 352.503906 39.183594 353.050781 C 39.550781 353.597656 39.964844 354.101562 40.429688 354.566406 C 40.894531 355.03125 41.398438 355.445312 41.945312 355.808594 C 42.492188 356.175781 43.066406 356.480469 43.671875 356.734375 C 44.28125 356.984375 44.90625 357.175781 45.550781 357.300781 C 46.191406 357.429688 46.84375 357.496094 47.5 357.496094 L 327.5 357.496094 C 328.15625 357.496094 328.808594 357.429688 329.449219 357.300781 C 330.09375 357.175781 330.71875 356.984375 331.328125 356.734375 C 331.933594 356.480469 332.507812 356.175781 333.054688 355.808594 C 333.601562 355.445312 334.105469 355.03125 334.570312 354.566406 C 335.035156 354.101562 335.449219 353.597656 335.816406 353.050781 C 336.179688 352.503906 336.488281 351.929688 336.738281 351.320312 C 336.988281 350.714844 337.179688 350.089844 337.308594 349.445312 C 337.4375 348.800781 337.5 348.152344 337.5 347.496094 L 337.5 47.496094 C 337.5 46.839844 337.4375 46.1875 337.308594 45.542969 C 337.179688 44.898438 336.988281 44.273438 336.738281 43.667969 C 336.488281 43.0625 336.179688 42.484375 335.816406 41.9375 C 335.449219 41.394531 335.035156 40.886719 334.570312 40.421875 C 334.105469 39.960938 333.601562 39.542969 333.054688 39.179688 C 332.507812 38.816406 331.933594 38.507812 331.328125 38.253906 C 330.71875 38.003906 330.09375 37.816406 329.449219 37.6875 C 328.808594 37.558594 328.15625 37.496094 327.5 37.496094 L 277.5 37.496094 L 277.5 27.496094 C 277.5 26.839844 277.4375 26.1875 277.308594 25.542969 C 277.179688 24.898438 276.988281 24.273438 276.738281 23.667969 C 276.488281 23.0625 276.179688 22.484375 275.816406 21.9375 C 275.449219 21.394531 275.035156 20.886719 274.570312 20.421875 C 274.105469 19.960938 273.601562 19.542969 273.054688 19.179688 C 272.507812 18.816406 271.933594 18.507812 271.328125 18.253906 C 270.71875 18.003906 270.09375 17.816406 269.449219 17.6875 C 268.808594 17.558594 268.15625 17.496094 267.5 17.496094 C 266.84375 17.496094 266.191406 17.558594 265.550781 17.6875 C 264.90625 17.816406 264.28125 18.003906 263.671875 18.253906 C 263.066406 18.507812 262.488281 18.816406 261.945312 19.179688 C 261.398438 19.542969 260.894531 19.960938 260.429688 20.421875 C 259.964844 20.886719 259.550781 21.394531 259.183594 21.9375 C 258.820312 22.484375 258.511719 23.0625 258.261719 23.667969 C 258.011719 24.273438 257.820312 24.898438 257.691406 25.542969 C 257.5625 26.1875 257.5 26.839844 257.5 27.496094 L 257.5 37.496094 L 117.5 37.496094 L 117.5 27.496094 C 117.5 26.839844 117.4375 26.1875 117.308594 25.542969 C 117.179688 24.898438 116.988281 24.273438 116.738281 23.667969 C 116.488281 23.0625 116.179688 22.484375 115.816406 21.9375 C 115.449219 21.394531 115.035156 20.886719 114.570312 20.421875 C 114.105469 19.960938 113.601562 19.542969 113.054688 19.179688 C 112.507812 18.816406 111.933594 18.507812 111.328125 18.253906 C 110.71875 18.003906 110.09375 17.816406 109.449219 17.6875 C 108.808594 17.558594 108.15625 17.496094 107.5 17.496094 Z M 57.5 337.496094 L 57.5 117.496094 L 317.5 117.496094 L 317.5 337.496094 Z M 257.5 57.496094 L 257.5 67.496094 C 257.5 68.152344 257.5625 68.800781 257.691406 69.445312 C 257.820312 70.089844 258.011719 70.714844 258.261719 71.320312 C 258.511719 71.929688 258.820312 72.503906 259.183594 73.050781 C 259.550781 73.597656 259.964844 74.101562 260.429688 74.566406 C 260.894531 75.03125 261.398438 75.445312 261.945312 75.808594 C 262.488281 76.175781 263.066406 76.480469 263.671875 76.734375 C 264.28125 76.984375 264.90625 77.175781 265.550781 77.300781 C 266.191406 77.429688 266.84375 77.496094 267.5 77.496094 C 268.15625 77.496094 268.808594 77.429688 269.449219 77.300781 C 270.09375 77.175781 270.71875 76.984375 271.328125 76.734375 C 271.933594 76.480469 272.507812 76.175781 273.054688 75.808594 C 273.601562 75.445312 274.105469 75.03125 274.570312 74.566406 C 275.035156 74.101562 275.449219 73.597656 275.816406 73.050781 C 276.179688 72.503906 276.488281 71.929688 276.738281 71.320312 C 276.988281 70.714844 277.179688 70.089844 277.308594 69.445312 C 277.4375 68.800781 277.5 68.152344 277.5 67.496094 L 277.5 57.496094 L 317.5 57.496094 L 317.5 97.496094 L 57.5 97.496094 L 57.5 57.496094 L 97.5 57.496094 L 97.5 67.496094 C 97.5 68.152344 97.5625 68.800781 97.691406 69.445312 C 97.820312 70.089844 98.011719 70.714844 98.261719 71.320312 C 98.511719 71.929688 98.820312 72.503906 99.183594 73.050781 C 99.550781 73.597656 99.964844 74.101562 100.429688 74.566406 C 100.894531 75.03125 101.398438 75.445312 101.945312 75.808594 C 102.492188 76.175781 103.066406 76.480469 103.671875 76.734375 C 104.28125 76.984375 104.90625 77.175781 105.550781 77.300781 C 106.191406 77.429688 106.84375 77.496094 107.5 77.496094 C 108.15625 77.496094 108.808594 77.429688 109.449219 77.300781 C 110.09375 77.175781 110.71875 76.984375 111.328125 76.734375 C 111.933594 76.480469 112.507812 76.175781 113.054688 75.808594 C 113.601562 75.445312 114.105469 75.03125 114.570312 74.566406 C 115.035156 74.101562 115.449219 73.597656 115.816406 73.050781 C 116.179688 72.503906 116.488281 71.929688 116.738281 71.320312 C 116.988281 70.714844 117.179688 70.089844 117.308594 69.445312 C 117.4375 68.800781 117.5 68.152344 117.5 67.496094 L 117.5 57.496094 Z M 257.5 57.496094 " clip-rule="nonzero"/></clipPath><linearGradient x1="-0.000000078125" gradientTransform="matrix(19.999998, 0, 0, 19.999998, 37.500004, 17.49457)" y1="8.5" x2="15" gradientUnits="userSpaceOnUse" y2="8.5" id="48778cd24f"><stop stop-opacity="1" stop-color="rgb(21.199036%, 71.398926%, 15.299988%)" offset="0"/><stop stop-opacity="1" stop-color="rgb(21.286011%, 71.182251%, 15.974426%)" offset="0.00390625"/><stop stop-opacity="1" stop-color="rgb(21.374512%, 70.967102%, 16.650391%)" offset="0.0078125"/><stop stop-opacity="1" stop-color="rgb(21.461487%, 70.750427%, 17.324829%)" offset="0.0117188"/><stop stop-opacity="1" stop-color="rgb(21.549988%, 70.535278%, 18.000793%)" offset="0.015625"/><stop stop-opacity="1" stop-color="rgb(21.636963%, 70.318604%, 18.675232%)" offset="0.0195313"/><stop stop-opacity="1" stop-color="rgb(21.725464%, 70.103455%, 19.351196%)" offset="0.0234375"/><stop stop-opacity="1" stop-color="rgb(21.812439%, 69.88678%, 20.025635%)" offset="0.0273438"/><stop stop-opacity="1" stop-color="rgb(21.90094%, 69.671631%, 20.701599%)" offset="0.03125"/><stop stop-opacity="1" stop-color="rgb(21.987915%, 69.454956%, 21.376038%)" offset="0.0351562"/><stop stop-opacity="1" stop-color="rgb(22.076416%, 69.238281%, 22.052002%)" offset="0.0390625"/><stop stop-opacity="1" stop-color="rgb(22.163391%, 69.021606%, 22.72644%)" offset="0.0429688"/><stop stop-opacity="1" stop-color="rgb(22.251892%, 68.806458%, 23.402405%)" offset="0.046875"/><stop stop-opacity="1" stop-color="rgb(22.338867%, 68.589783%, 24.076843%)" offset="0.0507812"/><stop stop-opacity="1" stop-color="rgb(22.427368%, 68.374634%, 24.752808%)" offset="0.0546875"/><stop stop-opacity="1" stop-color="rgb(22.514343%, 68.157959%, 25.427246%)" offset="0.0585938"/><stop stop-opacity="1" stop-color="rgb(22.602844%, 67.94281%, 26.10321%)" offset="0.0625"/><stop stop-opacity="1" stop-color="rgb(22.689819%, 67.726135%, 26.777649%)" offset="0.0664062"/><stop stop-opacity="1" stop-color="rgb(22.77832%, 67.510986%, 27.453613%)" offset="0.0703125"/><stop stop-opacity="1" stop-color="rgb(22.865295%, 67.294312%, 28.128052%)" offset="0.0742188"/><stop stop-opacity="1" stop-color="rgb(22.953796%, 67.079163%, 28.804016%)" offset="0.078125"/><stop stop-opacity="1" stop-color="rgb(23.040771%, 66.862488%, 29.478455%)" offset="0.0820312"/><stop stop-opacity="1" stop-color="rgb(23.127747%, 66.645813%, 30.154419%)" offset="0.0859375"/><stop stop-opacity="1" stop-color="rgb(23.214722%, 66.429138%, 30.828857%)" offset="0.0898438"/><stop stop-opacity="1" stop-color="rgb(23.303223%, 66.213989%, 31.504822%)" offset="0.09375"/><stop stop-opacity="1" stop-color="rgb(23.390198%, 65.997314%, 32.17926%)" offset="0.0976562"/><stop stop-opacity="1" stop-color="rgb(23.478699%, 65.782166%, 32.855225%)" offset="0.101562"/><stop stop-opacity="1" stop-color="rgb(23.565674%, 65.565491%, 33.529663%)" offset="0.105469"/><stop stop-opacity="1" stop-color="rgb(23.654175%, 65.350342%, 34.205627%)" offset="0.109375"/><stop stop-opacity="1" stop-color="rgb(23.74115%, 65.133667%, 34.880066%)" offset="0.113281"/><stop stop-opacity="1" stop-color="rgb(23.829651%, 64.918518%, 35.55603%)" offset="0.117188"/><stop stop-opacity="1" stop-color="rgb(23.916626%, 64.701843%, 36.230469%)" offset="0.121094"/><stop stop-opacity="1" stop-color="rgb(24.005127%, 64.486694%, 36.906433%)" offset="0.125"/><stop stop-opacity="1" stop-color="rgb(24.092102%, 64.27002%, 37.580872%)" offset="0.128906"/><stop stop-opacity="1" stop-color="rgb(24.180603%, 64.053345%, 38.256836%)" offset="0.132812"/><stop stop-opacity="1" stop-color="rgb(24.267578%, 63.83667%, 38.931274%)" offset="0.136719"/><stop stop-opacity="1" stop-color="rgb(24.356079%, 63.621521%, 39.607239%)" offset="0.140625"/><stop stop-opacity="1" stop-color="rgb(24.443054%, 63.404846%, 40.281677%)" offset="0.144531"/><stop stop-opacity="1" stop-color="rgb(24.531555%, 63.189697%, 40.957642%)" offset="0.148438"/><stop stop-opacity="1" stop-color="rgb(24.61853%, 62.973022%, 41.63208%)" offset="0.152344"/><stop stop-opacity="1" stop-color="rgb(24.707031%, 62.757874%, 42.308044%)" offset="0.15625"/><stop stop-opacity="1" stop-color="rgb(24.794006%, 62.541199%, 42.982483%)" offset="0.160156"/><stop stop-opacity="1" stop-color="rgb(24.882507%, 62.32605%, 43.658447%)" offset="0.164063"/><stop stop-opacity="1" stop-color="rgb(24.969482%, 62.109375%, 44.332886%)" offset="0.167969"/><stop stop-opacity="1" stop-color="rgb(25.057983%, 61.894226%, 45.00885%)" offset="0.171875"/><stop stop-opacity="1" stop-color="rgb(25.144958%, 61.677551%, 45.683289%)" offset="0.175781"/><stop stop-opacity="1" stop-color="rgb(25.233459%, 61.460876%, 46.359253%)" offset="0.179688"/><stop stop-opacity="1" stop-color="rgb(25.320435%, 61.244202%, 47.033691%)" offset="0.183594"/><stop stop-opacity="1" stop-color="rgb(25.408936%, 61.029053%, 47.709656%)" offset="0.1875"/><stop stop-opacity="1" stop-color="rgb(25.495911%, 60.812378%, 48.384094%)" offset="0.191406"/><stop stop-opacity="1" stop-color="rgb(25.584412%, 60.597229%, 49.060059%)" offset="0.195313"/><stop stop-opacity="1" stop-color="rgb(25.671387%, 60.380554%, 49.734497%)" offset="0.199219"/><stop stop-opacity="1" stop-color="rgb(25.759888%, 60.165405%, 50.410461%)" offset="0.203125"/><stop stop-opacity="1" stop-color="rgb(25.846863%, 59.94873%, 51.0849%)" offset="0.207031"/><stop stop-opacity="1" stop-color="rgb(25.933838%, 59.733582%, 51.760864%)" offset="0.210938"/><stop stop-opacity="1" stop-color="rgb(26.020813%, 59.516907%, 52.435303%)" offset="0.214844"/><stop stop-opacity="1" stop-color="rgb(26.109314%, 59.301758%, 53.111267%)" offset="0.21875"/><stop stop-opacity="1" stop-color="rgb(26.196289%, 59.085083%, 53.785706%)" offset="0.222656"/><stop stop-opacity="1" stop-color="rgb(26.28479%, 58.868408%, 54.46167%)" offset="0.226562"/><stop stop-opacity="1" stop-color="rgb(26.371765%, 58.651733%, 55.136108%)" offset="0.230469"/><stop stop-opacity="1" stop-color="rgb(26.460266%, 58.436584%, 55.812073%)" offset="0.234375"/><stop stop-opacity="1" stop-color="rgb(26.547241%, 58.21991%, 56.486511%)" offset="0.238281"/><stop stop-opacity="1" stop-color="rgb(26.635742%, 58.004761%, 57.162476%)" offset="0.242188"/><stop stop-opacity="1" stop-color="rgb(26.722717%, 57.788086%, 57.836914%)" offset="0.246094"/><stop stop-opacity="1" stop-color="rgb(26.811218%, 57.572937%, 58.512878%)" offset="0.25"/><stop stop-opacity="1" stop-color="rgb(26.898193%, 57.356262%, 59.187317%)" offset="0.253906"/><stop stop-opacity="1" stop-color="rgb(26.986694%, 57.141113%, 59.863281%)" offset="0.257813"/><stop stop-opacity="1" stop-color="rgb(27.073669%, 56.924438%, 60.53772%)" offset="0.261719"/><stop stop-opacity="1" stop-color="rgb(27.16217%, 56.70929%, 61.213684%)" offset="0.265625"/><stop stop-opacity="1" stop-color="rgb(27.249146%, 56.492615%, 61.889648%)" offset="0.269531"/><stop stop-opacity="1" stop-color="rgb(27.337646%, 56.27594%, 62.565613%)" offset="0.273438"/><stop stop-opacity="1" stop-color="rgb(27.424622%, 56.059265%, 63.240051%)" offset="0.277344"/><stop stop-opacity="1" stop-color="rgb(27.513123%, 55.844116%, 63.916016%)" offset="0.28125"/><stop stop-opacity="1" stop-color="rgb(27.600098%, 55.627441%, 64.590454%)" offset="0.285156"/><stop stop-opacity="1" stop-color="rgb(27.688599%, 55.412292%, 65.266418%)" offset="0.289063"/><stop stop-opacity="1" stop-color="rgb(27.775574%, 55.195618%, 65.940857%)" offset="0.292969"/><stop stop-opacity="1" stop-color="rgb(27.864075%, 54.980469%, 66.616821%)" offset="0.296875"/><stop stop-opacity="1" stop-color="rgb(27.95105%, 54.763794%, 67.29126%)" offset="0.300781"/><stop stop-opacity="1" stop-color="rgb(28.039551%, 54.548645%, 67.967224%)" offset="0.304688"/><stop stop-opacity="1" stop-color="rgb(28.126526%, 54.33197%, 68.641663%)" offset="0.308594"/><stop stop-opacity="1" stop-color="rgb(28.215027%, 54.116821%, 69.317627%)" offset="0.3125"/><stop stop-opacity="1" stop-color="rgb(28.302002%, 53.900146%, 69.992065%)" offset="0.316406"/><stop stop-opacity="1" stop-color="rgb(28.390503%, 53.683472%, 70.66803%)" offset="0.320312"/><stop stop-opacity="1" stop-color="rgb(28.477478%, 53.466797%, 71.342468%)" offset="0.324219"/><stop stop-opacity="1" stop-color="rgb(28.565979%, 53.251648%, 72.018433%)" offset="0.328125"/><stop stop-opacity="1" stop-color="rgb(28.652954%, 53.034973%, 72.692871%)" offset="0.332031"/><stop stop-opacity="1" stop-color="rgb(28.739929%, 52.819824%, 73.368835%)" offset="0.335938"/><stop stop-opacity="1" stop-color="rgb(28.826904%, 52.603149%, 74.043274%)" offset="0.339844"/><stop stop-opacity="1" stop-color="rgb(28.915405%, 52.388%, 74.719238%)" offset="0.34375"/><stop stop-opacity="1" stop-color="rgb(29.00238%, 52.171326%, 75.393677%)" offset="0.347656"/><stop stop-opacity="1" stop-color="rgb(29.090881%, 51.956177%, 76.069641%)" offset="0.351563"/><stop stop-opacity="1" stop-color="rgb(29.177856%, 51.739502%, 76.74408%)" offset="0.355469"/><stop stop-opacity="1" stop-color="rgb(29.266357%, 51.524353%, 77.420044%)" offset="0.359375"/><stop stop-opacity="1" stop-color="rgb(29.353333%, 51.307678%, 78.094482%)" offset="0.363281"/><stop stop-opacity="1" stop-color="rgb(29.441833%, 51.091003%, 78.770447%)" offset="0.367188"/><stop stop-opacity="1" stop-color="rgb(29.528809%, 50.874329%, 79.444885%)" offset="0.371094"/><stop stop-opacity="1" stop-color="rgb(29.61731%, 50.65918%, 80.12085%)" offset="0.375"/><stop stop-opacity="1" stop-color="rgb(29.704285%, 50.442505%, 80.795288%)" offset="0.378906"/><stop stop-opacity="1" stop-color="rgb(29.792786%, 50.227356%, 81.471252%)" offset="0.382813"/><stop stop-opacity="1" stop-color="rgb(29.879761%, 50.010681%, 82.145691%)" offset="0.386719"/><stop stop-opacity="1" stop-color="rgb(29.968262%, 49.795532%, 82.821655%)" offset="0.390625"/><stop stop-opacity="1" stop-color="rgb(30.055237%, 49.578857%, 83.496094%)" offset="0.394531"/><stop stop-opacity="1" stop-color="rgb(30.143738%, 49.363708%, 84.172058%)" offset="0.398438"/><stop stop-opacity="1" stop-color="rgb(30.230713%, 49.147034%, 84.846497%)" offset="0.402344"/><stop stop-opacity="1" stop-color="rgb(30.319214%, 48.931885%, 85.522461%)" offset="0.40625"/><stop stop-opacity="1" stop-color="rgb(30.406189%, 48.71521%, 86.196899%)" offset="0.410156"/><stop stop-opacity="1" stop-color="rgb(30.49469%, 48.498535%, 86.872864%)" offset="0.414062"/><stop stop-opacity="1" stop-color="rgb(30.581665%, 48.28186%, 87.547302%)" offset="0.417969"/><stop stop-opacity="1" stop-color="rgb(30.670166%, 48.066711%, 88.223267%)" offset="0.421875"/><stop stop-opacity="1" stop-color="rgb(30.757141%, 47.850037%, 88.897705%)" offset="0.425781"/><stop stop-opacity="1" stop-color="rgb(30.845642%, 47.634888%, 89.573669%)" offset="0.429688"/><stop stop-opacity="1" stop-color="rgb(30.932617%, 47.418213%, 90.248108%)" offset="0.433594"/><stop stop-opacity="1" stop-color="rgb(31.021118%, 47.203064%, 90.924072%)" offset="0.4375"/><stop stop-opacity="1" stop-color="rgb(31.108093%, 46.986389%, 91.598511%)" offset="0.441406"/><stop stop-opacity="1" stop-color="rgb(31.196594%, 46.77124%, 92.274475%)" offset="0.445313"/><stop stop-opacity="1" stop-color="rgb(31.283569%, 46.554565%, 92.948914%)" offset="0.449219"/><stop stop-opacity="1" stop-color="rgb(31.37207%, 46.337891%, 93.624878%)" offset="0.453125"/><stop stop-opacity="1" stop-color="rgb(31.459045%, 46.121216%, 94.299316%)" offset="0.457031"/><stop stop-opacity="1" stop-color="rgb(31.547546%, 45.906067%, 94.975281%)" offset="0.460938"/><stop stop-opacity="1" stop-color="rgb(31.634521%, 45.689392%, 95.649719%)" offset="0.464844"/><stop stop-opacity="1" stop-color="rgb(31.721497%, 45.474243%, 96.325684%)" offset="0.46875"/><stop stop-opacity="1" stop-color="rgb(31.808472%, 45.257568%, 97.000122%)" offset="0.472656"/><stop stop-opacity="1" stop-color="rgb(31.896973%, 45.042419%, 97.676086%)" offset="0.476563"/><stop stop-opacity="1" stop-color="rgb(31.983948%, 44.825745%, 98.350525%)" offset="0.480469"/><stop stop-opacity="1" stop-color="rgb(32.072449%, 44.610596%, 99.026489%)" offset="0.484375"/><stop stop-opacity="1" stop-color="rgb(32.066345%, 44.520569%, 99.380493%)" offset="0.488281"/><stop stop-opacity="1" stop-color="rgb(32.061768%, 44.430542%, 99.736023%)" offset="0.492188"/><stop stop-opacity="1" stop-color="rgb(31.814575%, 44.664001%, 99.267578%)" offset="0.496094"/><stop stop-opacity="1" stop-color="rgb(31.567383%, 44.898987%, 98.799133%)" offset="0.5"/><stop stop-opacity="1" stop-color="rgb(31.32019%, 45.132446%, 98.330688%)" offset="0.503906"/><stop stop-opacity="1" stop-color="rgb(31.074524%, 45.367432%, 97.862244%)" offset="0.507812"/><stop stop-opacity="1" stop-color="rgb(30.827332%, 45.602417%, 97.392273%)" offset="0.511719"/><stop stop-opacity="1" stop-color="rgb(30.581665%, 45.837402%, 96.923828%)" offset="0.515625"/><stop stop-opacity="1" stop-color="rgb(30.334473%, 46.070862%, 96.455383%)" offset="0.519531"/><stop stop-opacity="1" stop-color="rgb(30.088806%, 46.305847%, 95.986938%)" offset="0.523438"/><stop stop-opacity="1" stop-color="rgb(29.841614%, 46.539307%, 95.516968%)" offset="0.527344"/><stop stop-opacity="1" stop-color="rgb(29.594421%, 46.774292%, 95.048523%)" offset="0.53125"/><stop stop-opacity="1" stop-color="rgb(29.347229%, 47.007751%, 94.580078%)" offset="0.535156"/><stop stop-opacity="1" stop-color="rgb(29.101562%, 47.242737%, 94.111633%)" offset="0.539062"/><stop stop-opacity="1" stop-color="rgb(28.85437%, 47.476196%, 93.643188%)" offset="0.542969"/><stop stop-opacity="1" stop-color="rgb(28.608704%, 47.711182%, 93.174744%)" offset="0.546875"/><stop stop-opacity="1" stop-color="rgb(28.361511%, 47.946167%, 92.704773%)" offset="0.550781"/><stop stop-opacity="1" stop-color="rgb(28.114319%, 48.181152%, 92.236328%)" offset="0.554688"/><stop stop-opacity="1" stop-color="rgb(27.867126%, 48.414612%, 91.767883%)" offset="0.558594"/><stop stop-opacity="1" stop-color="rgb(27.62146%, 48.649597%, 91.299438%)" offset="0.5625"/><stop stop-opacity="1" stop-color="rgb(27.374268%, 48.883057%, 90.829468%)" offset="0.566406"/><stop stop-opacity="1" stop-color="rgb(27.128601%, 49.118042%, 90.361023%)" offset="0.570312"/><stop stop-opacity="1" stop-color="rgb(26.881409%, 49.351501%, 89.892578%)" offset="0.574219"/><stop stop-opacity="1" stop-color="rgb(26.635742%, 49.586487%, 89.424133%)" offset="0.578125"/><stop stop-opacity="1" stop-color="rgb(26.38855%, 49.819946%, 88.955688%)" offset="0.582031"/><stop stop-opacity="1" stop-color="rgb(26.141357%, 50.054932%, 88.487244%)" offset="0.585938"/><stop stop-opacity="1" stop-color="rgb(25.894165%, 50.289917%, 88.017273%)" offset="0.589844"/><stop stop-opacity="1" stop-color="rgb(25.648499%, 50.524902%, 87.548828%)" offset="0.59375"/><stop stop-opacity="1" stop-color="rgb(25.401306%, 50.758362%, 87.080383%)" offset="0.597656"/><stop stop-opacity="1" stop-color="rgb(25.15564%, 50.993347%, 86.611938%)" offset="0.601563"/><stop stop-opacity="1" stop-color="rgb(24.908447%, 51.226807%, 86.141968%)" offset="0.605469"/><stop stop-opacity="1" stop-color="rgb(24.662781%, 51.461792%, 85.673523%)" offset="0.609375"/><stop stop-opacity="1" stop-color="rgb(24.415588%, 51.695251%, 85.205078%)" offset="0.613281"/><stop stop-opacity="1" stop-color="rgb(24.168396%, 51.930237%, 84.736633%)" offset="0.617188"/><stop stop-opacity="1" stop-color="rgb(23.921204%, 52.163696%, 84.268188%)" offset="0.621094"/><stop stop-opacity="1" stop-color="rgb(23.675537%, 52.398682%, 83.799744%)" offset="0.625"/><stop stop-opacity="1" stop-color="rgb(23.428345%, 52.633667%, 83.329773%)" offset="0.628906"/><stop stop-opacity="1" stop-color="rgb(23.182678%, 52.868652%, 82.861328%)" offset="0.632812"/><stop stop-opacity="1" stop-color="rgb(22.935486%, 53.102112%, 82.392883%)" offset="0.636719"/><stop stop-opacity="1" stop-color="rgb(22.689819%, 53.337097%, 81.924438%)" offset="0.640625"/><stop stop-opacity="1" stop-color="rgb(22.442627%, 53.570557%, 81.454468%)" offset="0.644531"/><stop stop-opacity="1" stop-color="rgb(22.195435%, 53.805542%, 80.986023%)" offset="0.648437"/><stop stop-opacity="1" stop-color="rgb(21.948242%, 54.039001%, 80.517578%)" offset="0.652344"/><stop stop-opacity="1" stop-color="rgb(21.702576%, 54.273987%, 80.049133%)" offset="0.65625"/><stop stop-opacity="1" stop-color="rgb(21.455383%, 54.507446%, 79.580688%)" offset="0.660156"/><stop stop-opacity="1" stop-color="rgb(21.209717%, 54.742432%, 79.112244%)" offset="0.664062"/><stop stop-opacity="1" stop-color="rgb(20.962524%, 54.977417%, 78.642273%)" offset="0.667969"/><stop stop-opacity="1" stop-color="rgb(20.716858%, 55.212402%, 78.173828%)" offset="0.671875"/><stop stop-opacity="1" stop-color="rgb(20.469666%, 55.445862%, 77.705383%)" offset="0.675781"/><stop stop-opacity="1" stop-color="rgb(20.222473%, 55.680847%, 77.236938%)" offset="0.679687"/><stop stop-opacity="1" stop-color="rgb(19.975281%, 55.914307%, 76.766968%)" offset="0.683594"/><stop stop-opacity="1" stop-color="rgb(19.729614%, 56.149292%, 76.298523%)" offset="0.6875"/><stop stop-opacity="1" stop-color="rgb(19.482422%, 56.382751%, 75.830078%)" offset="0.691406"/><stop stop-opacity="1" stop-color="rgb(19.236755%, 56.617737%, 75.361633%)" offset="0.695312"/><stop stop-opacity="1" stop-color="rgb(18.989563%, 56.851196%, 74.893188%)" offset="0.699219"/><stop stop-opacity="1" stop-color="rgb(18.742371%, 57.086182%, 74.424744%)" offset="0.703125"/><stop stop-opacity="1" stop-color="rgb(18.495178%, 57.321167%, 73.954773%)" offset="0.707031"/><stop stop-opacity="1" stop-color="rgb(18.249512%, 57.556152%, 73.486328%)" offset="0.710938"/><stop stop-opacity="1" stop-color="rgb(18.002319%, 57.789612%, 73.017883%)" offset="0.714844"/><stop stop-opacity="1" stop-color="rgb(17.756653%, 58.024597%, 72.549438%)" offset="0.71875"/><stop stop-opacity="1" stop-color="rgb(17.50946%, 58.258057%, 72.079468%)" offset="0.722656"/><stop stop-opacity="1" stop-color="rgb(17.263794%, 58.493042%, 71.611023%)" offset="0.726562"/><stop stop-opacity="1" stop-color="rgb(17.016602%, 58.726501%, 71.142578%)" offset="0.730469"/><stop stop-opacity="1" stop-color="rgb(16.769409%, 58.961487%, 70.674133%)" offset="0.734375"/><stop stop-opacity="1" stop-color="rgb(16.522217%, 59.194946%, 70.205688%)" offset="0.738281"/><stop stop-opacity="1" stop-color="rgb(16.27655%, 59.429932%, 69.737244%)" offset="0.742188"/><stop stop-opacity="1" stop-color="rgb(16.029358%, 59.664917%, 69.267273%)" offset="0.746094"/><stop stop-opacity="1" stop-color="rgb(15.783691%, 59.899902%, 68.798828%)" offset="0.75"/><stop stop-opacity="1" stop-color="rgb(15.536499%, 60.133362%, 68.330383%)" offset="0.753906"/><stop stop-opacity="1" stop-color="rgb(15.290833%, 60.368347%, 67.861938%)" offset="0.757812"/><stop stop-opacity="1" stop-color="rgb(15.04364%, 60.601807%, 67.391968%)" offset="0.761719"/><stop stop-opacity="1" stop-color="rgb(14.796448%, 60.836792%, 66.923523%)" offset="0.765625"/><stop stop-opacity="1" stop-color="rgb(14.549255%, 61.070251%, 66.455078%)" offset="0.769531"/><stop stop-opacity="1" stop-color="rgb(14.303589%, 61.305237%, 65.986633%)" offset="0.773438"/><stop stop-opacity="1" stop-color="rgb(14.056396%, 61.538696%, 65.518188%)" offset="0.777344"/><stop stop-opacity="1" stop-color="rgb(13.81073%, 61.773682%, 65.049744%)" offset="0.78125"/><stop stop-opacity="1" stop-color="rgb(13.563538%, 62.008667%, 64.579773%)" offset="0.785156"/><stop stop-opacity="1" stop-color="rgb(13.317871%, 62.243652%, 64.111328%)" offset="0.789063"/><stop stop-opacity="1" stop-color="rgb(13.070679%, 62.477112%, 63.642883%)" offset="0.792969"/><stop stop-opacity="1" stop-color="rgb(12.823486%, 62.712097%, 63.174438%)" offset="0.796875"/><stop stop-opacity="1" stop-color="rgb(12.576294%, 62.945557%, 62.704468%)" offset="0.800781"/><stop stop-opacity="1" stop-color="rgb(12.330627%, 63.180542%, 62.236023%)" offset="0.804688"/><stop stop-opacity="1" stop-color="rgb(12.083435%, 63.414001%, 61.767578%)" offset="0.808594"/><stop stop-opacity="1" stop-color="rgb(11.837769%, 63.648987%, 61.299133%)" offset="0.8125"/><stop stop-opacity="1" stop-color="rgb(11.590576%, 63.882446%, 60.830688%)" offset="0.816406"/><stop stop-opacity="1" stop-color="rgb(11.34491%, 64.117432%, 60.362244%)" offset="0.820312"/><stop stop-opacity="1" stop-color="rgb(11.097717%, 64.352417%, 59.892273%)" offset="0.824219"/><stop stop-opacity="1" stop-color="rgb(10.850525%, 64.587402%, 59.423828%)" offset="0.828125"/><stop stop-opacity="1" stop-color="rgb(10.603333%, 64.820862%, 58.955383%)" offset="0.832031"/><stop stop-opacity="1" stop-color="rgb(10.357666%, 65.055847%, 58.486938%)" offset="0.835937"/><stop stop-opacity="1" stop-color="rgb(10.110474%, 65.289307%, 58.016968%)" offset="0.839844"/><stop stop-opacity="1" stop-color="rgb(9.864807%, 65.524292%, 57.548523%)" offset="0.84375"/><stop stop-opacity="1" stop-color="rgb(9.617615%, 65.757751%, 57.080078%)" offset="0.847656"/><stop stop-opacity="1" stop-color="rgb(9.370422%, 65.992737%, 56.611633%)" offset="0.851562"/><stop stop-opacity="1" stop-color="rgb(9.12323%, 66.226196%, 56.143188%)" offset="0.855469"/><stop stop-opacity="1" stop-color="rgb(8.877563%, 66.461182%, 55.674744%)" offset="0.859375"/><stop stop-opacity="1" stop-color="rgb(8.630371%, 66.696167%, 55.204773%)" offset="0.863281"/><stop stop-opacity="1" stop-color="rgb(8.384705%, 66.931152%, 54.736328%)" offset="0.867188"/><stop stop-opacity="1" stop-color="rgb(8.137512%, 67.164612%, 54.267883%)" offset="0.871094"/><stop stop-opacity="1" stop-color="rgb(7.891846%, 67.399597%, 53.799438%)" offset="0.875"/><stop stop-opacity="1" stop-color="rgb(7.644653%, 67.633057%, 53.329468%)" offset="0.878906"/><stop stop-opacity="1" stop-color="rgb(7.397461%, 67.868042%, 52.861023%)" offset="0.882812"/><stop stop-opacity="1" stop-color="rgb(7.150269%, 68.101501%, 52.392578%)" offset="0.886719"/><stop stop-opacity="1" stop-color="rgb(6.904602%, 68.336487%, 51.924133%)" offset="0.890625"/><stop stop-opacity="1" stop-color="rgb(6.65741%, 68.569946%, 51.455688%)" offset="0.894531"/><stop stop-opacity="1" stop-color="rgb(6.411743%, 68.804932%, 50.987244%)" offset="0.898438"/><stop stop-opacity="1" stop-color="rgb(6.164551%, 69.039917%, 50.517273%)" offset="0.902344"/><stop stop-opacity="1" stop-color="rgb(5.918884%, 69.274902%, 50.048828%)" offset="0.90625"/><stop stop-opacity="1" stop-color="rgb(5.671692%, 69.508362%, 49.580383%)" offset="0.910156"/><stop stop-opacity="1" stop-color="rgb(5.4245%, 69.743347%, 49.111938%)" offset="0.914062"/><stop stop-opacity="1" stop-color="rgb(5.177307%, 69.976807%, 48.641968%)" offset="0.917969"/><stop stop-opacity="1" stop-color="rgb(4.931641%, 70.211792%, 48.173523%)" offset="0.921875"/><stop stop-opacity="1" stop-color="rgb(4.684448%, 70.445251%, 47.705078%)" offset="0.925781"/><stop stop-opacity="1" stop-color="rgb(4.438782%, 70.680237%, 47.236633%)" offset="0.929688"/><stop stop-opacity="1" stop-color="rgb(4.191589%, 70.913696%, 46.768188%)" offset="0.933594"/><stop stop-opacity="1" stop-color="rgb(3.945923%, 71.148682%, 46.299744%)" offset="0.9375"/><stop stop-opacity="1" stop-color="rgb(3.69873%, 71.383667%, 45.829773%)" offset="0.941406"/><stop stop-opacity="1" stop-color="rgb(3.451538%, 71.618652%, 45.361328%)" offset="0.945312"/><stop stop-opacity="1" stop-color="rgb(3.204346%, 71.852112%, 44.892883%)" offset="0.949219"/><stop stop-opacity="1" stop-color="rgb(2.958679%, 72.087097%, 44.424438%)" offset="0.953125"/><stop stop-opacity="1" stop-color="rgb(2.711487%, 72.320557%, 43.954468%)" offset="0.957031"/><stop stop-opacity="1" stop-color="rgb(2.46582%, 72.555542%, 43.486023%)" offset="0.960938"/><stop stop-opacity="1" stop-color="rgb(2.218628%, 72.789001%, 43.017578%)" offset="0.964844"/><stop stop-opacity="1" stop-color="rgb(1.972961%, 73.023987%, 42.549133%)" offset="0.96875"/><stop stop-opacity="1" stop-color="rgb(1.725769%, 73.257446%, 42.080688%)" offset="0.972656"/><stop stop-opacity="1" stop-color="rgb(1.478577%, 73.492432%, 41.612244%)" offset="0.976563"/><stop stop-opacity="1" stop-color="rgb(1.231384%, 73.727417%, 41.142273%)" offset="0.980469"/><stop stop-opacity="1" stop-color="rgb(0.985718%, 73.962402%, 40.673828%)" offset="0.984375"/><stop stop-opacity="1" stop-color="rgb(0.738525%, 74.195862%, 40.205383%)" offset="0.988281"/><stop stop-opacity="1" stop-color="rgb(0.492859%, 74.430847%, 39.736938%)" offset="0.992188"/><stop stop-opacity="1" stop-color="rgb(0.245667%, 74.664307%, 39.266968%)" offset="0.996094"/><stop stop-opacity="1" stop-color="rgb(0%, 74.899292%, 38.798523%)" offset="1"/></linearGradient></defs><g clip-path="url(#b4c9868a28)"><g clip-path="url(#be0630db5f)"><path fill="url(#48778cd24f)" d="M 37.5 17.496094 L 37.5 357.496094 L 337.5 357.496094 L 337.5 17.496094 Z M 37.5 17.496094 " fill-rule="nonzero"/></g></g></svg>